<svg height="800" width="800" version="1.1" id="Layer_1" xmlns="http://www.w3.org/2000/svg" viewBox="0 0 512 512" xml:space="preserve"><path style="fill:#bdfdff" d="M0 488.727C0 501.58 10.42 512 23.273 512h465.454C501.58 512 512 501.58 512 488.727V23.273C512 10.42 501.58 0 488.727 0H23.273C16.043 0 9.584 3.297 5.314 8.47a23.24 23.24 0 0 0-4.268 7.883A23.255 23.255 0 0 0 0 23.273"/><path style="fill:#a78966" d="m507.412 381.763-18.685-25.166-74.406-100.214a23.27 23.27 0 0 0-37.37 0l-73.745 99.322L256 287.517l-73.956-106.826a23.277 23.277 0 0 0-38.27.002L46.545 321.134l-23.273 33.617L4.138 382.39A23.272 23.272 0 0 0 0 395.636v93.091C0 501.58 10.42 512 23.273 512h465.454C501.58 512 512 501.58 512 488.727v-93.091c0-4.997-1.609-9.861-4.588-13.873z"/><path style="fill:#9bc9ff" d="M23.273 0C10.42 0 0 10.42 0 23.273v372.364c0-4.734 1.444-9.356 4.138-13.247l19.135-27.64 23.273-33.617 97.229-140.442a23.277 23.277 0 0 1 38.27.002L256 287.517V0H23.273z"/><path style="fill:#806749" d="M182.044 180.693a23.273 23.273 0 0 0-38.27 0L46.545 321.134l-23.273 33.617L4.138 382.39A23.272 23.272 0 0 0 0 395.636v93.091C0 501.58 10.42 512 23.273 512H256V287.517l-73.956-106.824z"/><circle style="fill:#ffb655" cx="302.545" cy="155.152" r="54.303"/></svg>